HIERARCHY
ROOT Reference
{
  OFFSET 0 0 0
  CHANNELS 6 Xposition Yposition Zposition Zrotation Xrotation Yrotation
  JOINT Hips
  {
    OFFSET 251.394 724.17 483.536
    CHANNELS 3 Zrotation Xrotation Yrotation
    JOINT RightUpLeg
    {
      OFFSET -0.450515 -23.4426 -1.37224
      CHANNELS 3 Zrotation Xrotation Yrotation
      JOINT RightLeg
      {
        OFFSET 112.821 0.0872427 -0.321027
        CHANNELS 3 Zrotation Xrotation Yrotation
        JOINT RightFoot
        {
          OFFSET 105.718 0.000193788 0.0213165
          CHANNELS 3 Zrotation Xrotation Yrotation
          JOINT RightToeBase
          {
            OFFSET 37.638 -0.000116272 0.00224792
            CHANNELS 3 Zrotation Xrotation Yrotation
            JOINT RightToeEnd
            {
              OFFSET 21.2112 0.114605 -0.000138184
              CHANNELS 3 Zrotation Xrotation Yrotation
              End Site
              {
                OFFSET 0 0 0
              }
            }
          }
        }
      }
    }
    JOINT LeftUpLeg
    {
      OFFSET -0.449508 23.4315 -1.37054
      CHANNELS 3 Zrotation Xrotation Yrotation
      JOINT LeftLeg
      {
        OFFSET 112.821 -0.0485242 -0.372458
        CHANNELS 3 Zrotation Xrotation Yrotation
        JOINT LeftFoot
        {
          OFFSET 105.716 0.00496094 -0.0229443
          CHANNELS 3 Zrotation Xrotation Yrotation
          JOINT LeftToeBase
          {
            OFFSET 37.639 0 0.00158905
            CHANNELS 3 Zrotation Xrotation Yrotation
            JOINT LeftToeEnd
            {
              OFFSET 21.2113 -0.125031 -0.00017438
              CHANNELS 3 Zrotation Xrotation Yrotation
              End Site
              {
                OFFSET 0 0 0
              }
            }
          }
        }
      }
    }
    JOINT Spine
    {
      OFFSET -5.01225 0.000463591 -9.60395
      CHANNELS 3 Zrotation Xrotation Yrotation
      JOINT Spine1
      {
        OFFSET 26.0222 -0.000271301 -0.000155029
        CHANNELS 3 Zrotation Xrotation Yrotation
        JOINT Spine2
        {
          OFFSET 27.173 -0.000155029 -0.000310058
          CHANNELS 3 Zrotation Xrotation Yrotation
          JOINT Spine3
          {
            OFFSET 36.3953 -0.000232544 7.75146e-005
            CHANNELS 3 Zrotation Xrotation Yrotation
            JOINT Neck
            {
              OFFSET 36.4331 0 -3.00261
              CHANNELS 3 Zrotation Xrotation Yrotation
              JOINT Head
              {
                OFFSET 23.0407 -0.000232544 -0.000310058
                CHANNELS 3 Zrotation Xrotation Yrotation
                End Site
                {
                  OFFSET 0 0 0
                }
              }
            }
            JOINT LeftShoulder
            {
              OFFSET 20.1317 6.74168 -12.6061
              CHANNELS 3 Zrotation Xrotation Yrotation
              JOINT LeftArm
              {
                OFFSET 34.2172 -5.81359e-005 7.75146e-005
                CHANNELS 3 Zrotation Xrotation Yrotation
                JOINT LeftForeArm
                {
                  OFFSET 65.4129 -0.0821605 0.0585235
                  CHANNELS 3 Zrotation Xrotation Yrotation
                  JOINT LeftHand
                  {
                    OFFSET 67.3883 0.0359667 0.0112396
                    CHANNELS 3 Zrotation Xrotation Yrotation
                    JOINT LeftHandThumb1
                    {
                      OFFSET 8.78386 2.85353 -6.05362
                      CHANNELS 3 Zrotation Xrotation Yrotation
                      JOINT LeftHandThumb2
                      {
                        OFFSET 8.25498 -0.000116272 -0.000174407
                        CHANNELS 3 Zrotation Xrotation Yrotation
                        JOINT LeftHandThumb3
                        {
                          OFFSET 7.24822 0.000310058 5.81358e-005
                          CHANNELS 3 Zrotation Xrotation Yrotation
                          JOINT LeftHandThumb4
                          {
                            OFFSET 7.0004 -3.87568e-005 -0.000310057
                            CHANNELS 3 Zrotation Xrotation Yrotation
                            End Site
                            {
                              OFFSET 0 0 0
                            }
                          }
                        }
                      }
                    }
                    JOINT LeftHandIndex1
                    {
                      OFFSET 24.0991 -1.01537 -5.40558
                      CHANNELS 3 Zrotation Xrotation Yrotation
                      JOINT LeftHandIndex2
                      {
                        OFFSET 7.26759 -0.000290679 -0.000465086
                        CHANNELS 3 Zrotation Xrotation Yrotation
                        JOINT LeftHandIndex3
                        {
                          OFFSET 7.13628 -1.93787e-005 0.000232543
                          CHANNELS 3 Zrotation Xrotation Yrotation
                          JOINT LeftHandIndex4
                          {
                            OFFSET 5.46699 9.68932e-005 -0.000387571
                            CHANNELS 3 Zrotation Xrotation Yrotation
                            End Site
                            {
                              OFFSET 0 0 0
                            }
                          }
                        }
                      }
                    }
                    JOINT LeftHandMiddle1
                    {
                      OFFSET 24.4604 -2.52837 0.918567
                      CHANNELS 3 Zrotation Xrotation Yrotation
                      JOINT LeftHandMiddle2
                      {
                        OFFSET 7.41627 -5.81359e-005 0.000116271
                        CHANNELS 3 Zrotation Xrotation Yrotation
                        JOINT LeftHandMiddle3
                        {
                          OFFSET 8.76829 3.87573e-005 -7.75142e-005
                          CHANNELS 3 Zrotation Xrotation Yrotation
                          JOINT LeftHandMiddle4
                          {
                            OFFSET 6.07588 -0.00013565 -5.81356e-005
                            CHANNELS 3 Zrotation Xrotation Yrotation
                            End Site
                            {
                              OFFSET 0 0 0
                            }
                          }
                        }
                      }
                    }
                    JOINT LeftHandRing1
                    {
                      OFFSET 22.465 -1.97467 6.3466
                      CHANNELS 3 Zrotation Xrotation Yrotation
                      JOINT LeftHandRing2
                      {
                        OFFSET 7.36666 -0.000232544 0.000387571
                        CHANNELS 3 Zrotation Xrotation Yrotation
                        JOINT LeftHandRing3
                        {
                          OFFSET 8.07624 -0.000465087 -0.000203475
                          CHANNELS 3 Zrotation Xrotation Yrotation
                          JOINT LeftHandRing4
                          {
                            OFFSET 6.04433 0.00013565 3.87571e-005
                            CHANNELS 3 Zrotation Xrotation Yrotation
                            End Site
                            {
                              OFFSET 0 0 0
                            }
                          }
                        }
                      }
                    }
                    JOINT LeftHandPinky1
                    {
                      OFFSET 19.5278 0.352933 10.4295
                      CHANNELS 3 Zrotation Xrotation Yrotation
                      JOINT LeftHandPinky2
                      {
                        OFFSET 6.16525 5.8136e-005 -0.000251921
                        CHANNELS 3 Zrotation Xrotation Yrotation
                        JOINT LeftHandPinky3
                        {
                          OFFSET 6.14448 -0.000329434 -0.00510625
                          CHANNELS 3 Zrotation Xrotation Yrotation
                          JOINT LeftHandPinky4
                          {
                            OFFSET 4.98555 0.000116272 0.000116271
                            CHANNELS 3 Zrotation Xrotation Yrotation
                            End Site
                            {
                              OFFSET 0 0 0
                            }
                          }
                        }
                      }
                    }
                  }
                }
              }
            }
            JOINT RightShoulder
            {
              OFFSET 20.1309 -6.74152 -12.6063
              CHANNELS 3 Zrotation Xrotation Yrotation
              JOINT RightArm
              {
                OFFSET 34.2171 7.75146e-005 7.75146e-005
                CHANNELS 3 Zrotation Xrotation Yrotation
                JOINT RightForeArm
                {
                  OFFSET 65.4492 0.242543 -0.176501
                  CHANNELS 3 Zrotation Xrotation Yrotation
                  JOINT RightHand
                  {
                    OFFSET 67.3888 -0.0867388 0.0597442
                    CHANNELS 3 Zrotation Xrotation Yrotation
                    JOINT RightHandThumb1
                    {
                      OFFSET 8.78307 -2.85357 -6.05302
                      CHANNELS 3 Zrotation Xrotation Yrotation
                      JOINT RightHandThumb2
                      {
                        OFFSET 8.25493 -7.75145e-005 0
                        CHANNELS 3 Zrotation Xrotation Yrotation
                        JOINT RightHandThumb3
                        {
                          OFFSET 7.24797 -0.000174408 0.000155029
                          CHANNELS 3 Zrotation Xrotation Yrotation
                          JOINT RightHandThumb4
                          {
                            OFFSET 7.00062 0 0
                            CHANNELS 3 Zrotation Xrotation Yrotation
                            End Site
                            {
                              OFFSET 0 0 0
                            }
                          }
                        }
                      }
                    }
                    JOINT RightHandIndex1
                    {
                      OFFSET 24.0991 1.01525 -5.40578
                      CHANNELS 3 Zrotation Xrotation Yrotation
                      JOINT RightHandIndex2
                      {
                        OFFSET 7.26773 7.75144e-005 0.000232543
                        CHANNELS 3 Zrotation Xrotation Yrotation
                        JOINT RightHandIndex3
                        {
                          OFFSET 7.13572 -0.000310058 3.87571e-005
                          CHANNELS 3 Zrotation Xrotation Yrotation
                          JOINT RightHandIndex4
                          {
                            OFFSET 5.46717 0 3.87572e-005
                            CHANNELS 3 Zrotation Xrotation Yrotation
                            End Site
                            {
                              OFFSET 0 0 0
                            }
                          }
                        }
                      }
                    }
                    JOINT RightHandMiddle1
                    {
                      OFFSET 24.4603 2.52899 0.918547
                      CHANNELS 3 Zrotation Xrotation Yrotation
                      JOINT RightHandMiddle2
                      {
                        OFFSET 7.41641 -0.000116272 -0.000116272
                        CHANNELS 3 Zrotation Xrotation Yrotation
                        JOINT RightHandMiddle3
                        {
                          OFFSET 8.76765 -3.87577e-005 0.000232543
                          CHANNELS 3 Zrotation Xrotation Yrotation
                          JOINT RightHandMiddle4
                          {
                            OFFSET 6.07609 -0.000193787 -0.000116271
                            CHANNELS 3 Zrotation Xrotation Yrotation
                            End Site
                            {
                              OFFSET 0 0 0
                            }
                          }
                        }
                      }
                    }
                    JOINT RightHandRing1
                    {
                      OFFSET 22.465 1.97571 6.34696
                      CHANNELS 3 Zrotation Xrotation Yrotation
                      JOINT RightHandRing2
                      {
                        OFFSET 7.36684 0.000193786 0.000155029
                        CHANNELS 3 Zrotation Xrotation Yrotation
                        JOINT RightHandRing3
                        {
                          OFFSET 8.07614 -0.000271301 0
                          CHANNELS 3 Zrotation Xrotation Yrotation
                          JOINT RightHandRing4
                          {
                            OFFSET 6.04468 0.000232543 0
                            CHANNELS 3 Zrotation Xrotation Yrotation
                            End Site
                            {
                              OFFSET 0 0 0
                            }
                          }
                        }
                      }
                    }
                    JOINT RightHandPinky1
                    {
                      OFFSET 19.5277 -0.352346 10.4296
                      CHANNELS 3 Zrotation Xrotation Yrotation
                      JOINT RightHandPinky2
                      {
                        OFFSET 6.16508 0 0.000232543
                        CHANNELS 3 Zrotation Xrotation Yrotation
                        JOINT RightHandPinky3
                        {
                          OFFSET 6.14396 -0.000155048 -0.0048834
                          CHANNELS 3 Zrotation Xrotation Yrotation
                          JOINT RightHandPinky4
                          {
                            OFFSET 4.98577 -7.75146e-005 -7.75143e-005
                            CHANNELS 3 Zrotation Xrotation Yrotation
                            End Site
                            {
                              OFFSET 0 0 0
                            }
                          }
                        }
                      }
                    }
                  }
                }
              }
            }
          }
        }
      }
    }
  }
}
MOTION
Frames:	4
Frame Time:	0.0333333
0 0 0 -90 -7.01671e-015 -180 -2.78512 -2.75095 -112.441 -176.676 -12.1526 -103.511 -0.184727 -0.406442 -22.6162 -3.30004 -2.68762 48.0487 -0.571695 0.104664 57.7613 -2.1242e-005 0.000125047 -86.4974 175.55 -1.91838 -105.272 -0.0164626 -0.0594486 -19.8767 0.87026 -6.90444 46.9749 0.581559 -0.122618 56.7844 -2.57504e-005 -4.93357e-005 -86.4974 -2.04434e-005 7.20903e-005 121.665 -0.0307934 0.360224 -14.5349 1.49266 0.654238 -14.4864 -0.894432 2.28072 6.05231 -0.371572 1.3137 24.7691 3.54482 -2.11848 46.3679 105.103 23.2639 -22.6407 59.8178 22.2047 22.3163 -9.57491 19.1615 40.7473 -9.66748 -4.91965 -0.240887 -158.644 -1.25043 154.969 0.000477572 0.000162335 18.1946 0.000321826 -2.20296e-005 11.959 0.000361146 -0.00128066 -8.6227e-005 36.0644 86.5085 -17.7557 -0.000463654 -0.000448241 14.4454 0.00116846 -0.000786634 10.5801 -0.000639273 -0.000435062 -2.32873 -1.69348 86.8811 35.2101 3.21769e-005 -0.000158153 17.6049 0.0010992 -0.00076504 18.4312 -0.000577659 -0.000167516 -2.32825 -63.431 87.7466 103.217 0.000165934 -0.000792729 21.6994 0.00153503 -0.000242287 22.5462 -0.000670441 -0.000738395 -2.32753 -63.1793 86.0904 102.72 0.00132348 -0.00127279 24.1169 9.50806e-005 -5.82889e-005 22.3014 -1.96072e-005 -0.000112561 -2.32873 -102.311 -22.8567 -25.4013 -65.4036 -20.2337 13.6166 9.73345 -13.1109 34.8319 3.65046 12.8387 -4.07463 158.644 1.25064 151.962 1.79399e-005 0.000242273 15.1881 0.000244075 0.000212436 8.95279 -0.000213623 -0.000106811 -180 -36.0676 -86.5084 -23.3844 -0.000344975 -0.000198535 8.82135 0.000302557 0.000123552 4.9572 -9.15529e-005 5.78578e-014 177.672 1.69055 -86.8814 29.5836 5.42429e-005 4.67331e-005 11.9805 2.21696e-005 0.000163399 12.8066 -0.000208664 0.000121969 177.672 63.4316 -87.7471 97.5949 0.00021357 -0.000269302 16.0747 -9.19894e-006 0.000433826 16.9212 1.23979e-006 3.04923e-005 177.672 63.1801 -86.0906 97.0987 -0.000142536 0.000304505 18.4917 0.000154238 3.48064e-005 16.6768 -0.000228882 7.01092e-015 177.672 
0 0 0 -90 -7.01671e-015 -180 -2.92178 -2.81676 -112.302 -176.779 -12.3839 -103.312 -0.182475 -0.399678 -22.6533 -3.67623 -2.92723 48.0296 -0.572437 0.100985 58.13 -2.10525e-005 0.000102807 -86.4974 175.484 -2.1122 -105.162 -0.0170677 -0.0612281 -19.8265 0.805067 -6.89735 46.9525 0.581558 -0.122643 56.7844 -2.5709e-005 -6.40988e-005 -86.4974 -1.13156e-005 3.99822e-005 121.605 0.085499 0.450798 -14.5821 1.59734 0.69362 -14.474 -0.859883 2.20456 5.94429 -0.375773 1.32114 24.8523 3.49858 -2.02703 46.3567 105.08 23.198 -23.0572 60.1951 21.6819 20.7282 -9.28502 19.502 39.5596 -9.59464 -5.18379 -0.508626 -158.644 -1.25043 154.969 0.000477488 0.000156152 18.1946 0.000321967 -2.65819e-005 11.959 0.000359856 -0.00127938 -0.000816204 36.0636 86.5085 -17.4918 -0.000444775 -0.000469572 14.7085 0.00119899 -0.000795263 10.8433 -0.00063927 -0.000548668 -2.32873 -1.69439 86.8811 35.4743 8.30762e-005 -0.000137408 17.868 0.00105995 -0.000784586 18.6943 -0.000577641 -0.0001724 -2.32824 -63.4309 87.7466 103.48 0.000188371 -0.000779983 21.9624 0.00153707 -0.000238441 22.8092 -0.000670417 -0.000813441 -2.32753 -63.1794 86.0903 102.984 0.0012976 -0.00125108 24.38 0.00330205 0.00126313 22.5529 -1.96047e-005 -0.000203774 -2.32872 -102.04 -22.8411 -25.5068 -65.6393 -20.0256 12.8276 9.77253 -13.1276 34.9572 3.6148 12.7708 -4.23185 158.644 1.2506 151.962 1.72955e-005 0.000241723 15.1881 0.000243963 0.000212328 8.95279 -0.000213623 -0.000106811 -180 -36.0677 -86.5084 -23.2414 -0.000327966 -0.0002166 8.96463 0.000294186 0.000136884 5.10042 -9.15529e-005 3.24344e-014 177.674 1.6908 -86.8814 29.727 3.96759e-005 2.58989e-005 12.1235 1.54119e-005 0.000137152 12.9499 -0.000208669 0.00012197 177.674 63.4319 -87.7471 97.7385 0.000204905 -0.000243051 16.2179 8.53517e-006 0.000411348 17.0644 -2.47957e-006 -6.09847e-005 177.672 63.1803 -86.0906 97.2422 -0.000135871 0.000308308 18.6349 0.000159612 1.37154e-005 16.8201 -0.000228263 1.52462e-005 177.674 
0 0 0 -90 -7.01671e-015 -180 -3.07666 -2.90057 -112.134 -176.997 -12.6324 -103.133 -0.180074 -0.394691 -22.6183 -4.3908 -3.15627 47.957 -0.57321 0.0965506 58.5682 -2.12304e-005 8.56026e-005 -86.4974 175.152 -2.22317 -105.023 -0.0182954 -0.0647272 -19.796 0.71319 -6.77764 46.9402 0.581559 -0.122709 56.7844 -2.56689e-005 -8.0443e-005 -86.4974 -2.8791e-005 4.79031e-005 121.549 0.267689 0.49006 -14.6533 1.66978 0.72516 -14.4505 -0.832256 2.14569 5.8344 -0.380014 1.34073 24.7973 3.35267 -1.92678 46.4145 105.042 23.1121 -23.5969 60.6444 21.0853 19.0137 -8.86939 19.7497 38.1703 -9.53244 -5.10894 -1.0364 -158.644 -1.25043 154.969 0.000477449 0.000154546 18.1946 0.000321976 -3.12279e-005 11.959 0.00035985 -0.00128493 -0.00154191 36.0645 86.5085 -16.7988 -0.000442826 -0.000479887 15.4021 0.00116811 -0.000772489 11.537 -0.000639191 -0.000432844 -2.3285 -1.69395 86.8812 36.1678 6.74159e-005 -0.000162014 18.5616 0.00112984 -0.000757181 19.3879 -0.000577612 -0.000181228 -2.32825 -63.431 87.7467 104.174 0.000202865 -0.000750067 22.656 0.00154219 -0.000245925 23.5028 -0.000672116 -0.000742023 -2.32739 -63.1794 86.0904 103.678 0.00131535 -0.00123302 25.0736 0.0143231 0.00601853 23.2439 -6.72732e-005 -0.000113578 -2.32855 -101.788 -22.8079 -25.7141 -65.9262 -19.7325 12.0501 9.58427 -12.9981 34.83 3.68354 12.5931 -4.14621 158.644 1.25057 151.962 1.7292e-005 0.000238899 15.1881 0.000244004 0.000209823 8.95279 -0.000213623 -0.00012207 -180 -36.0673 -86.5084 -22.8635 -0.00033519 -0.00019461 9.34233 0.000259058 0.000129905 5.47807 -9.15529e-005 3.24344e-014 177.676 1.69055 -86.8814 30.1043 7.48443e-005 2.66058e-005 12.5013 -2.55411e-006 0.000144233 13.3275 -0.000208673 0.00012197 177.676 63.4319 -87.7471 98.1162 0.000179974 -0.000243557 16.5955 3.77519e-005 0.000411021 17.442 1.23989e-006 3.04923e-005 177.672 63.1799 -86.0906 97.6195 -0.000144956 0.000281986 19.0125 0.000168848 1.61524e-005 17.1977 -0.000228263 1.52462e-005 177.676 
0 0 0 -90 -7.01671e-015 -180 -3.29006 -3.01366 -111.941 -176.956 -13.0525 -102.789 -0.178617 -0.388202 -22.7058 -4.95143 -3.63815 47.9113 -0.573896 0.0918485 59.0398 -2.12933e-005 4.22156e-005 -86.4974 174.93 -2.45794 -104.875 -0.0194464 -0.0682872 -19.7341 0.628987 -6.75021 46.9178 0.581541 -0.12259 56.7843 -2.56632e-005 -0.000114082 -86.4974 -3.32127e-005 6.37254e-005 121.469 0.514632 0.588221 -14.744 1.71517 0.768296 -14.4072 -0.797218 2.06609 5.73084 -0.389509 1.37722 24.7626 3.24207 -1.93655 46.4276 105.13 23.0431 -24.0107 61.0412 20.3058 17.1406 -8.46279 19.8182 36.6594 -9.30737 -5.3714 -1.55355 -158.644 -1.25042 154.969 0.000477558 0.000149523 18.1946 0.000322237 -3.96314e-005 11.959 0.000357706 -0.00128216 -0.00227103 36.0643 86.5085 -15.8177 -0.000456213 -0.000456898 16.3828 0.00120468 -0.000757595 12.5178 -0.000639195 -0.000546909 -2.3285 -1.69316 86.8811 37.1482 2.29128e-005 -0.000149568 19.5422 0.00113795 -0.000753796 20.3685 -0.000577565 -0.000193451 -2.32824 -63.4307 87.7467 105.155 0.000212422 -0.000772313 23.6366 0.00156245 -0.000234221 24.4834 -0.000672038 -0.000813442 -2.32739 -63.1795 86.0903 104.659 0.00138574 -0.00123926 26.0541 0.000164498 -6.2294e-005 24.2386 -6.71692e-005 -0.000208175 -2.32855 -101.57 -22.7929 -25.8102 -66.1994 -19.2877 11.0487 9.53197 -12.7227 34.7402 3.60187 12.6903 -4.18106 158.644 1.25053 151.962 1.68574e-005 0.000233377 15.1881 0.000243803 0.000205471 8.95279 -0.000213623 -0.00012207 -180 -36.0674 -86.5084 -22.3299 -0.00034044 -0.000186311 9.87631 0.000274322 0.000125394 6.0119 -9.15528e-005 -3.24345e-014 177.678 1.69053 -86.8815 30.6379 6.75901e-005 5.80878e-005 13.0353 3.89181e-005 0.000137481 13.8614 -0.000208677 0.00012197 177.678 63.4328 -87.7471 98.6511 0.000199749 -0.000242809 17.1292 7.14975e-007 0.000397856 17.9757 -2.47977e-006 -6.09847e-005 177.672 63.1804 -86.0906 98.154 -0.000127201 0.000302796 19.5462 0.0001585 1.33567e-005 17.7315 -0.000228264 1.52462e-005 177.678 
